<svg id="IG_icon" data-name="IG icon" xmlns="http://www.w3.org/2000/svg" width="30" height="30" viewBox="0 0 30 30">
  <rect id="background" width="30" height="30" fill="none"/>
  <g id="Dribbble-Light-Preview">
    <g id="icons">
      <path id="instagram-_167_" data-name="instagram-[#167]" d="M292.8,7279.183a8.271,8.271,0,0,0-8.682,8.661c-.069,1.509-.47,12.9.694,15.89a7.56,7.56,0,0,0,4.366,4.354,10.94,10.94,0,0,0,3.622.692c13.291.6,18.218.274,20.3-5.046a10.849,10.849,0,0,0,.693-3.615c.607-13.325-.1-16.213-2.415-18.527-1.837-1.833-4-3.08-18.573-2.41m.122,26.917a8.264,8.264,0,0,1-2.772-.512,4.882,4.882,0,0,1-2.833-2.824c-.887-2.271-.593-13.055-.513-14.8a6.372,6.372,0,0,1,1.63-4.478c1.493-1.488,3.421-2.218,16.551-1.626a6.411,6.411,0,0,1,4.488,1.626c1.493,1.489,2.233,3.433,1.63,16.511a8.216,8.216,0,0,1-.513,2.766c-1.351,3.461-4.458,3.942-17.667,3.336m12.208-20.066a1.792,1.792,0,1,0,1.791-1.787,1.79,1.79,0,0,0-1.791,1.787m-13.841,7.947a7.664,7.664,0,1,0,7.664-7.644,7.655,7.655,0,0,0-7.664,7.644m2.69,0a4.975,4.975,0,1,1,4.975,4.964,4.969,4.969,0,0,1-4.975-4.964" transform="translate(-284 -7278.999)" fill="#202020" fill-rule="evenodd"/>
    </g>
  </g>
</svg>
